<?xml version="1.0" encoding="UTF-8"?>
<svg id="Layer_2" data-name="Layer 2" xmlns="http://www.w3.org/2000/svg" xmlns:xlink="http://www.w3.org/1999/xlink" viewBox="0 0 1076.44 538.67">
  <defs>
    <style>
      .cls-1 {
        clip-path: url(#clippath-2);
      }

      .cls-2 {
        clip-path: url(#clippath-6);
      }

      .cls-3 {
        fill: none;
      }

      .cls-3, .cls-4 {
        stroke-width: 0px;
      }

      .cls-5 {
        clip-path: url(#clippath-1);
      }

      .cls-6 {
        clip-path: url(#clippath-4);
      }

      .cls-4 {
        fill: #fff;
      }

      .cls-7 {
        clip-path: url(#clippath);
      }

      .cls-8 {
        clip-path: url(#clippath-3);
      }

      .cls-9 {
        clip-path: url(#clippath-5);
      }
    </style>
    <clipPath id="clippath">
      <rect class="cls-3" width="1076.44" height="538.67"/>
    </clipPath>
    <clipPath id="clippath-1">
      <rect class="cls-3" y="269.33" width="1076.44" height="269.33"/>
    </clipPath>
    <clipPath id="clippath-2">
      <rect class="cls-3" width="1076.44" height="374.67"/>
    </clipPath>
    <clipPath id="clippath-3">
      <rect class="cls-3" y="278.67" width="440.38" height="73.33"/>
    </clipPath>
    <clipPath id="clippath-4">
      <rect class="cls-3" y="212" width="615.04" height="118.67"/>
    </clipPath>
    <clipPath id="clippath-5">
      <rect class="cls-3" y="290.67" width="440.38" height="61.33"/>
    </clipPath>
    <clipPath id="clippath-6">
      <rect class="cls-3" y="236" width="597.71" height="93.33"/>
    </clipPath>
  </defs>
  <g id="Layer_1-2" data-name="Layer 1">
    <g>
      <g class="cls-7">
        <path class="cls-4" d="M1076.8.29s-58.17,296.87-294.41,334.46C546.15,372.34,213.65,231.78-.36,369.22v139.17s110.26-149.23,386.68-88.01c276.42,61.22,427.54,176.66,690.18,80.74l.3-500.84Z"/>
      </g>
      <g class="cls-5">
        <path class="cls-4" d="M125.5,346.26c165.49-25.85,311.19,66.79,591.83,94.79,273.3,27.38,355.29-161.85,359.32-171.59l-.15,231.68c-262.64,95.91-413.73-19.63-690.18-80.74C109.88,359.27-.36,508.43-.36,508.43v-114.18c27.77-20.51,68.77-39.1,125.86-48Z"/>
      </g>
      <g class="cls-1">
        <path class="cls-4" d="M782.39,334.75C1018.64,297.16,1076.8.29,1076.8.29v81.07c-42.96,110.95-104.68,261.9-327.69,281.72C490.83,386.05,201.07,242.24-.36,373.36v-4.09c214.08-137.49,546.49,3.08,782.75-34.52Z"/>
      </g>
      <g class="cls-8">
        <path class="cls-4" d="M-.36,351.88s134.24-93.07,439.48-40.42c0,0-308.07-71.82-439.48-2.8v43.22Z"/>
      </g>
      <g class="cls-6">
        <path class="cls-4" d="M.16,283.97s56.96-35.35,197.88-23.01c140.91,12.34,281.38,54.24,416.75,69.58,0,0-225.47-58.36-287.82-75.77C264.63,237.38,93.7,194.74.16,221.67v62.3Z"/>
      </g>
      <g class="cls-9">
        <path class="cls-4" d="M-.36,351.88v-20.77l.52-.75s54.44-37.59,162.73-39.23c104.1-1.64,181.24,5.56,265.82,18.1,6.7,1.42,10.39,2.28,10.39,2.28C133.88,258.81-.36,351.88-.36,351.88Z"/>
      </g>
      <path class="cls-4" d="M614.79,330.55l-.86-.11h.36l.49.11Z"/>
      <g class="cls-2">
        <path class="cls-4" d="M198.04,260.97C57.12,248.62.16,283.97.16,283.97v-35.57s50.52-21.31,148.65-7.84c86.71,11.9,372.96,75.41,448.1,87.81-129.78-16.8-264.14-55.63-398.87-67.41Z"/>
      </g>
    </g>
  </g>
</svg>