<svg xmlns="http://www.w3.org/2000/svg" xmlns:xlink="http://www.w3.org/1999/xlink" width="1080" zoomAndPan="magnify" viewBox="0 0 810 374.250002" height="499" preserveAspectRatio="xMidYMid meet" version="1.0"><defs><clipPath id="e87ebc1400"><path d="M 1 43 L 808.441406 43 L 808.441406 249 L 1 249 Z M 1 43 " clip-rule="nonzero"/></clipPath><clipPath id="24d5a9d04b"><path d="M 1 91 L 808.441406 91 L 808.441406 373.5 L 1 373.5 Z M 1 91 " clip-rule="nonzero"/></clipPath><clipPath id="c1ed6845f5"><path d="M 0.808594 91 L 808.441406 91 L 808.441406 373.5 L 0.808594 373.5 Z M 0.808594 91 " clip-rule="nonzero"/></clipPath><clipPath id="6f61db4658"><path d="M 1 149 L 808.441406 149 L 808.441406 373.5 L 1 373.5 Z M 1 149 " clip-rule="nonzero"/></clipPath><clipPath id="06fcf385b0"><path d="M 1 213 L 808.441406 213 L 808.441406 373.5 L 1 373.5 Z M 1 213 " clip-rule="nonzero"/></clipPath></defs><path fill="#97b38f" d="M 94.425781 189.789062 C 74.171875 197.597656 63.109375 220.566406 53.964844 241.585938 C 49.199219 252.542969 44.535156 265.933594 50.660156 276.078125 C 55.371094 283.871094 64.839844 286.59375 70.71875 293.398438 C 78.710938 302.652344 78.679688 317.679688 86.734375 326.867188 C 94.765625 336.019531 108.222656 336.402344 119.59375 333.527344 C 130.964844 330.65625 141.917969 325.191406 153.59375 324.859375 C 165.789062 324.511719 177.570312 329.828125 189.757812 330.476562 C 201.941406 331.128906 216.363281 324.386719 217.828125 311.304688 C 218.945312 301.316406 212.085938 292.453125 210.074219 282.625 C 207.753906 271.273438 212.046875 259.75 214.769531 248.5 C 217.492188 237.253906 218.109375 223.691406 210.351562 215.625 C 199.328125 204.167969 181.214844 212.03125 166.011719 210.171875 C 152.433594 208.511719 141.066406 198.773438 128.585938 192.777344 C 116.101562 186.785156 99.914062 187.675781 94.425781 189.792969 Z M 94.425781 189.789062 " fill-opacity="1" fill-rule="nonzero"/><g clip-path="url(#e87ebc1400)"><path fill="#c1ff72" d="M 1.109375 248.171875 L 1.109375 128.609375 C 52.042969 155.605469 89.570312 151.570312 152.519531 122.921875 C 245.464844 80.621094 297.335938 0.0078125 477.175781 74.042969 C 640.917969 141.457031 808.066406 74.042969 808.066406 74.042969 L 808.066406 248.171875 L 1.109375 248.171875 " fill-opacity="1" fill-rule="nonzero"/></g><g clip-path="url(#24d5a9d04b)"><path fill="#7ed957" d="M 808.066406 179.820312 C 772.328125 258.285156 676.554688 96.859375 568.957031 137.449219 C 454.429688 180.648438 515.6875 28.207031 283.53125 123.332031 C 246.628906 138.457031 98.046875 218.558594 1.109375 149.367188 L 1.109375 373.300781 L 808.066406 373.300781 L 808.066406 179.820312 " fill-opacity="1" fill-rule="nonzero"/></g><g clip-path="url(#c1ed6845f5)"><path fill="#00bf63" d="M 808.066406 179.820312 L 807.882812 179.734375 C 804.304688 187.582031 800.140625 193.011719 795.429688 196.472656 C 790.714844 199.9375 785.46875 201.441406 779.699219 201.445312 C 769.847656 201.445312 758.492188 197.035156 745.890625 190.394531 C 726.988281 180.441406 705.289062 165.492188 681.625 153.027344 C 657.953125 140.570312 632.308594 130.585938 605.5 130.585938 C 593.5 130.585938 581.269531 132.585938 568.882812 137.261719 C 554.085938 142.839844 542.238281 145.148438 532.316406 145.148438 C 520.359375 145.148438 511.207031 141.796875 503.050781 136.757812 C 490.820312 129.210938 480.847656 117.84375 467.132812 108.355469 C 453.414062 98.867188 435.949219 91.273438 408.761719 91.277344 C 380.125 91.277344 340.699219 99.6875 283.453125 123.148438 C 270.40625 128.492188 243.449219 141.9375 209.753906 154.046875 C 176.066406 166.152344 135.644531 176.921875 95.703125 176.921875 C 62.503906 176.921875 29.640625 169.488281 1.226562 149.203125 L 0.910156 148.976562 L 0.910156 373.5 L 808.269531 373.5 L 808.269531 178.882812 L 807.882812 179.734375 L 808.066406 179.820312 L 807.867188 179.820312 L 807.867188 373.097656 L 1.3125 373.097656 L 1.3125 149.367188 L 1.109375 149.367188 L 0.992188 149.535156 C 29.492188 169.875 62.445312 177.328125 95.703125 177.328125 C 135.71875 177.328125 176.175781 166.542969 209.894531 154.425781 C 243.605469 142.308594 270.585938 128.855469 283.609375 123.519531 C 340.824219 100.074219 380.203125 91.679688 408.761719 91.679688 C 444.910156 91.683594 463.726562 105.113281 479.5625 118.566406 C 487.476562 125.296875 494.640625 132.039062 502.839844 137.101562 C 511.039062 142.171875 520.28125 145.550781 532.316406 145.550781 C 542.296875 145.550781 554.195312 143.234375 569.027344 137.636719 C 581.363281 132.984375 593.546875 130.992188 605.5 130.992188 C 641.105469 130.984375 674.726562 148.679688 704.398438 166.390625 C 719.226562 175.246094 733.074219 184.105469 745.703125 190.753906 C 758.328125 197.398438 769.730469 201.847656 779.699219 201.847656 C 785.539062 201.847656 790.890625 200.3125 795.667969 196.796875 C 800.449219 193.28125 804.65625 187.792969 808.25 179.902344 L 808.066406 179.820312 L 807.867188 179.820312 L 808.066406 179.820312 " fill-opacity="1" fill-rule="nonzero"/></g><g clip-path="url(#6f61db4658)"><path fill="#00bf63" d="M 1.109375 163.488281 C 1.109375 163.488281 30.800781 258.054688 201.875 185.429688 C 372.949219 112.800781 384.554688 164.8125 497.53125 213.226562 C 610.507812 261.644531 777.171875 189.503906 808.066406 172.558594 L 808.066406 373.300781 L 1.109375 373.300781 L 1.109375 163.488281 " fill-opacity="1" fill-rule="nonzero"/></g><g clip-path="url(#06fcf385b0)"><path fill="#00bf63" d="M 808.066406 373.300781 L 808.066406 218.160156 C 763.523438 195.550781 702.375 256.441406 663.375 283.867188 C 579.847656 342.613281 511.839844 201.796875 332.003906 275.832031 C 168.257812 343.246094 1.109375 275.832031 1.109375 275.832031 L 1.109375 373.300781 L 808.066406 373.300781 " fill-opacity="1" fill-rule="nonzero"/></g></svg>