<svg xmlns="http://www.w3.org/2000/svg" xmlns:xlink="http://www.w3.org/1999/xlink" width="1080" zoomAndPan="magnify" viewBox="0 0 810 448.499987" height="598" preserveAspectRatio="xMidYMid meet" version="1.0"><defs><clipPath id="2727c20a41"><path d="M 0.71875 0 L 808.050781 0 L 808.050781 404 L 0.71875 404 Z M 0.71875 0 " clip-rule="nonzero"/></clipPath><clipPath id="ed9bba8239"><path d="M 0.71875 202 L 808.050781 202 L 808.050781 404 L 0.71875 404 Z M 0.71875 202 " clip-rule="nonzero"/></clipPath><clipPath id="3d534fdc14"><path d="M 0.71875 0 L 808.050781 0 L 808.050781 281 L 0.71875 281 Z M 0.71875 0 " clip-rule="nonzero"/></clipPath><clipPath id="05aece26ab"><path d="M 0.71875 209 L 331 209 L 331 264 L 0.71875 264 Z M 0.71875 209 " clip-rule="nonzero"/></clipPath><clipPath id="8452b94aa6"><path d="M 0.71875 159 L 462 159 L 462 248 L 0.71875 248 Z M 0.71875 159 " clip-rule="nonzero"/></clipPath><clipPath id="26f4cb8b2e"><path d="M 0.71875 218 L 331 218 L 331 264 L 0.71875 264 Z M 0.71875 218 " clip-rule="nonzero"/></clipPath><clipPath id="30faa99547"><path d="M 0.71875 177 L 449 177 L 449 247 L 0.71875 247 Z M 0.71875 177 " clip-rule="nonzero"/></clipPath></defs><g clip-path="url(#2727c20a41)"><path fill="#ffffff" d="M 808.320312 0.21875 C 808.320312 0.21875 764.695312 222.871094 587.511719 251.0625 C 410.332031 279.257812 160.957031 173.832031 0.449219 276.914062 L 0.449219 381.292969 C 0.449219 381.292969 83.144531 269.371094 290.460938 315.289062 C 497.773438 361.207031 611.117188 447.78125 808.09375 375.847656 Z M 808.320312 0.21875 " fill-opacity="1" fill-rule="nonzero"/></g><g clip-path="url(#ed9bba8239)"><path fill="#ffffff" d="M 94.84375 259.691406 C 218.964844 240.304688 328.234375 309.78125 538.71875 330.785156 C 743.691406 351.320312 805.183594 209.394531 808.207031 202.089844 L 808.09375 375.847656 C 611.117188 447.78125 497.792969 361.128906 290.460938 315.289062 C 83.128906 269.449219 0.449219 381.324219 0.449219 381.324219 L 0.449219 295.691406 C 21.277344 280.308594 52.023438 266.363281 94.84375 259.691406 Z M 94.84375 259.691406 " fill-opacity="1" fill-rule="nonzero"/></g><g clip-path="url(#3d534fdc14)"><path fill="#ffffff" d="M 587.511719 251.0625 C 764.695312 222.871094 808.320312 0.21875 808.320312 0.21875 L 808.320312 61.019531 C 776.101562 144.230469 729.8125 257.445312 562.550781 272.3125 C 368.839844 289.535156 151.523438 181.683594 0.449219 280.019531 L 0.449219 276.949219 C 161.007812 173.832031 410.316406 279.257812 587.511719 251.0625 Z M 587.511719 251.0625 " fill-opacity="1" fill-rule="nonzero"/></g><g clip-path="url(#05aece26ab)"><path fill="#ffffff" d="M 0.449219 263.910156 C 0.449219 263.910156 101.128906 194.109375 330.0625 233.597656 C 330.0625 233.597656 99.011719 179.730469 0.449219 231.496094 Z M 0.449219 263.910156 " fill-opacity="1" fill-rule="nonzero"/></g><g clip-path="url(#8452b94aa6)"><path fill="#ffffff" d="M 0.839844 212.980469 C 0.839844 212.980469 43.558594 186.464844 149.246094 195.726562 C 254.929688 204.984375 360.277344 236.410156 461.808594 247.914062 C 461.808594 247.914062 292.707031 204.144531 245.945312 191.085938 C 199.1875 178.03125 70.992188 146.058594 0.839844 166.253906 Z M 0.839844 212.980469 " fill-opacity="1" fill-rule="nonzero"/></g><g clip-path="url(#26f4cb8b2e)"><path fill="#ffffff" d="M 0.449219 263.910156 L 0.449219 248.332031 L 0.839844 247.769531 C 0.839844 247.769531 41.667969 219.574219 122.890625 218.34375 C 200.964844 217.117188 258.824219 222.515625 322.257812 231.917969 C 327.28125 232.984375 330.046875 233.628906 330.046875 233.628906 C 101.128906 194.109375 0.449219 263.910156 0.449219 263.910156 Z M 0.449219 263.910156 " fill-opacity="1" fill-rule="nonzero"/></g><path fill="#ffffff" d="M 461.808594 247.914062 L 461.164062 247.832031 L 461.4375 247.832031 Z M 461.808594 247.914062 " fill-opacity="1" fill-rule="nonzero"/><g clip-path="url(#30faa99547)"><path fill="#ffffff" d="M 149.246094 195.726562 C 43.558594 186.464844 0.839844 212.980469 0.839844 212.980469 L 0.839844 186.304688 C 0.839844 186.304688 38.726562 170.324219 112.324219 180.421875 C 177.359375 189.34375 392.042969 236.976562 448.398438 246.28125 C 351.066406 233.679688 250.292969 204.5625 149.246094 195.726562 Z M 149.246094 195.726562 " fill-opacity="1" fill-rule="nonzero"/></g></svg>