<svg id="visual" viewBox="0 0 900 600" width="900" height="600" xmlns="http://www.w3.org/2000/svg" xmlns:xlink="http://www.w3.org/1999/xlink" version="1.1"><path d="M0 435L21.5 443.3C43 451.7 86 468.3 128.8 461.3C171.7 454.3 214.3 423.7 257.2 427.7C300 431.7 343 470.3 385.8 484.3C428.7 498.3 471.3 487.7 514.2 468.8C557 450 600 423 642.8 408.5C685.7 394 728.3 392 771.2 406.3C814 420.7 857 451.3 878.5 466.7L900 482L900 601L878.5 601C857 601 814 601 771.2 601C728.3 601 685.7 601 642.8 601C600 601 557 601 514.2 601C471.3 601 428.7 601 385.8 601C343 601 300 601 257.2 601C214.3 601 171.7 601 128.8 601C86 601 43 601 21.5 601L0 601Z" fill="#ffffff" stroke-linecap="round" stroke-linejoin="miter"></path></svg>