<svg xmlns="http://www.w3.org/2000/svg" xmlns:xlink="http://www.w3.org/1999/xlink" width="1080" zoomAndPan="magnify" viewBox="0 0 810 322.499991" height="430" preserveAspectRatio="xMidYMid meet" version="1.0"><defs><clipPath id="9f191895c6"><path d="M 516 12 L 807.875 12 L 807.875 177 L 516 177 Z M 516 12 " clip-rule="nonzero"/></clipPath><clipPath id="6e110e166b"><path d="M 0.894531 52 L 361 52 L 361 165 L 0.894531 165 Z M 0.894531 52 " clip-rule="nonzero"/></clipPath><clipPath id="2a187cad9d"><path d="M 0.894531 85 L 807.875 85 L 807.875 259 L 0.894531 259 Z M 0.894531 85 " clip-rule="nonzero"/></clipPath><clipPath id="2cf66e2daf"><path d="M 0.894531 124 L 87 124 L 87 203 L 0.894531 203 Z M 0.894531 124 " clip-rule="nonzero"/></clipPath><clipPath id="9f76ef7ab2"><path d="M 223 147 L 807.875 147 L 807.875 298 L 223 298 Z M 223 147 " clip-rule="nonzero"/></clipPath></defs><g clip-path="url(#9f191895c6)"><path fill="#7ed957" d="M 709.609375 151.695312 C 637.375 205.753906 592.226562 160.617188 516.71875 123.84375 C 579.234375 105.871094 626.863281 60.265625 673.363281 27.5625 C 712.390625 0.113281 763.5625 13.207031 808.144531 35.835938 L 808.144531 133.347656 C 808.144531 133.347656 751.992188 119.984375 709.609375 151.695312 " fill-opacity="1" fill-rule="nonzero"/></g><g clip-path="url(#6e110e166b)"><path fill="#7ed957" d="M 331.75 93.550781 C 341.46875 98.855469 350.914062 103.527344 360.105469 107.625 C 312.78125 138.539062 298.832031 201.140625 215.359375 134.738281 C 108.757812 49.9375 0.628906 101.046875 0.628906 101.046875 L 0.628906 93.550781 C 0.628906 93.550781 160.941406 0.269531 331.75 93.550781 " fill-opacity="1" fill-rule="nonzero"/></g><g clip-path="url(#2a187cad9d)"><path fill="#ddca49" d="M 215.359375 134.738281 C 298.832031 201.140625 312.78125 138.539062 360.105469 107.625 C 379.179688 95.167969 403.671875 87.851562 440.320312 96.199219 C 469.429688 102.832031 494.398438 112.972656 516.71875 123.84375 C 592.226562 160.617188 637.375 205.753906 709.609375 151.699219 C 751.992188 119.984375 808.144531 133.347656 808.144531 133.347656 L 808.144531 147.476562 C 808.144531 147.476562 659.964844 248.496094 488.773438 175.820312 C 333.449219 109.878906 311.078125 204.074219 223.824219 258.292969 C 191.929688 238.070312 163.464844 213.644531 135.410156 193.910156 C 120.4375 183.382812 103.683594 178.828125 86.195312 178.476562 C 69.898438 148.996094 46.308594 124.699219 0.628906 124.867188 L 0.628906 101.046875 C 0.628906 101.046875 108.757812 49.9375 215.359375 134.738281 " fill-opacity="1" fill-rule="nonzero"/></g><g clip-path="url(#2cf66e2daf)"><path fill="#ffde59" d="M 86.195312 178.476562 C 58.097656 177.914062 28.109375 188.238281 0.628906 202.183594 L 0.628906 124.867188 C 46.308594 124.699219 69.898438 148.996094 86.195312 178.476562 " fill-opacity="1" fill-rule="nonzero"/></g><g clip-path="url(#9f76ef7ab2)"><path fill="#ffde59" d="M 477.019531 259.898438 C 363.546875 321.867188 286.960938 298.320312 223.824219 258.292969 C 311.074219 204.074219 333.449219 109.875 488.769531 175.820312 C 659.964844 248.496094 808.144531 147.476562 808.144531 147.476562 L 808.144531 259.898438 C 808.144531 259.898438 647.828125 166.621094 477.019531 259.898438 " fill-opacity="1" fill-rule="nonzero"/></g><path fill="#7ed957" d="M 86.191406 178.472656 C 103.679688 178.824219 120.433594 183.378906 135.40625 193.910156 C 163.457031 213.640625 191.925781 238.070312 223.824219 258.292969 C 214.90625 263.832031 205.316406 268.957031 194.832031 273.449219 C 121.519531 304.867188 116.261719 232.855469 86.191406 178.472656 " fill-opacity="1" fill-rule="nonzero"/></svg>