<svg xmlns="http://www.w3.org/2000/svg" xmlns:xlink="http://www.w3.org/1999/xlink" width="1080" zoomAndPan="magnify" viewBox="0 0 810 322.499991" height="430" preserveAspectRatio="xMidYMid meet" version="1.0"><defs><clipPath id="ce039fd823"><path d="M 0.625 145 L 293 145 L 293 310 L 0.625 310 Z M 0.625 145 " clip-rule="nonzero"/></clipPath><clipPath id="835705b5e7"><path d="M 448 157 L 807.875 157 L 807.875 270 L 448 270 Z M 448 157 " clip-rule="nonzero"/></clipPath><clipPath id="4bd1e6ce62"><path d="M 0.625 63 L 807.875 63 L 807.875 237 L 0.625 237 Z M 0.625 63 " clip-rule="nonzero"/></clipPath><clipPath id="72c8f53ab2"><path d="M 722 119 L 807.875 119 L 807.875 198 L 722 198 Z M 722 119 " clip-rule="nonzero"/></clipPath><clipPath id="e348f45d4c"><path d="M 0.625 24 L 585 24 L 585 175 L 0.625 175 Z M 0.625 24 " clip-rule="nonzero"/></clipPath></defs><g clip-path="url(#ce039fd823)"><path fill="#ffde59" d="M 99.164062 170.304688 C 171.398438 116.246094 216.542969 161.382812 292.054688 198.160156 C 229.535156 216.128906 181.910156 261.734375 135.40625 294.4375 C 96.378906 321.886719 45.207031 308.792969 0.625 286.164062 L 0.625 188.652344 C 0.625 188.652344 56.78125 202.019531 99.164062 170.304688 " fill-opacity="1" fill-rule="nonzero"/></g><g clip-path="url(#835705b5e7)"><path fill="#ffde59" d="M 477.019531 228.449219 C 467.300781 223.144531 457.859375 218.472656 448.664062 214.375 C 495.988281 183.460938 509.941406 120.863281 593.414062 187.261719 C 700.015625 272.0625 808.140625 220.953125 808.140625 220.953125 L 808.140625 228.449219 C 808.140625 228.449219 647.828125 321.730469 477.019531 228.449219 " fill-opacity="1" fill-rule="nonzero"/></g><g clip-path="url(#4bd1e6ce62)"><path fill="#7ed957" d="M 593.414062 187.261719 C 509.941406 120.863281 495.988281 183.460938 448.664062 214.375 C 429.589844 226.835938 405.097656 234.148438 368.449219 225.800781 C 339.339844 219.167969 314.371094 209.027344 292.050781 198.15625 C 216.542969 161.382812 171.398438 116.246094 99.164062 170.300781 C 56.78125 202.019531 0.625 188.652344 0.625 188.652344 L 0.625 174.523438 C 0.625 174.523438 148.804688 73.503906 320 146.183594 C 475.320312 212.121094 497.695312 117.925781 584.945312 63.707031 C 616.839844 83.929688 645.308594 108.355469 673.363281 128.089844 C 688.332031 138.621094 705.085938 143.171875 722.574219 143.523438 C 738.875 173.003906 762.464844 197.304688 808.140625 197.132812 L 808.140625 220.953125 C 808.140625 220.953125 700.015625 272.0625 593.414062 187.261719 " fill-opacity="1" fill-rule="nonzero"/></g><g clip-path="url(#72c8f53ab2)"><path fill="#c1ff72" d="M 722.574219 143.523438 C 750.675781 144.085938 780.660156 133.761719 808.140625 119.816406 L 808.140625 197.132812 C 762.464844 197.304688 738.875 173.003906 722.574219 143.523438 " fill-opacity="1" fill-rule="nonzero"/></g><g clip-path="url(#e348f45d4c)"><path fill="#c1ff72" d="M 331.75 62.105469 C 445.226562 0.136719 521.808594 23.683594 584.945312 63.707031 C 497.699219 117.925781 475.324219 212.125 320 146.183594 C 148.804688 73.503906 0.625 174.523438 0.625 174.523438 L 0.625 62.105469 C 0.625 62.105469 160.945312 155.378906 331.75 62.105469 " fill-opacity="1" fill-rule="nonzero"/></g><path fill="#ffde59" d="M 722.578125 143.527344 C 705.09375 143.175781 688.335938 138.621094 673.367188 128.09375 C 645.3125 108.359375 616.847656 83.933594 584.949219 63.707031 C 593.863281 58.167969 603.457031 53.042969 613.941406 48.550781 C 687.25 17.132812 692.507812 89.144531 722.578125 143.527344 " fill-opacity="1" fill-rule="nonzero"/></svg>